<svg xmlns="http://www.w3.org/2000/svg" version="1.1" xmlns:xlink="http://www.w3.org/1999/xlink" xmlns:svgjs="http://svgjs.dev/svgjs" width="1000" height="1000" viewBox="0 0 1000 1000"><g transform="matrix(1,0,0,1,0,0)"><svg viewBox="0 0 280 280" data-background-color="#4b91f1" preserveAspectRatio="xMidYMid meet" height="1000" width="1000" xmlns="http://www.w3.org/2000/svg" xmlns:xlink="http://www.w3.org/1999/xlink"><g id="tight-bounds" transform="matrix(1,0,0,1,0,0)"><svg viewBox="0 0 280 280" height="280" width="280"><g><svg viewBox="0 0 280 280" height="280" width="280"><g><svg viewBox="0 0 280 280" height="280" width="280"><g id="textblocktransform"><svg viewBox="0 0 280 280" height="280" width="280" id="textblock"><g><svg viewBox="0 0 280 280" height="280" width="280"><g transform="matrix(1,0,0,1,90.50252531694167,90.50252531694167)"><svg viewBox="0 0 98.99494936611666 98.99494936611666" height="98.99494936611666" width="98.99494936611666"><g><circle r="49" cx="49.49747468305833" cy="49.49747468305833" fill="#0718c4" data-fill-palette-color="accent"></circle></g></svg></g><g><path d="M32.137 101.624c-0.8 2.177-2.097 3.903-3.889 5.178-1.793 1.274-3.901 2.011-6.326 2.21-2.431 0.197-4.966-0.189-7.605-1.159v0c-2.639-0.97-4.824-2.318-6.554-4.045-1.737-1.729-2.876-3.66-3.416-5.792-0.541-2.132-0.411-4.287 0.389-6.464v0c0.8-2.177 2.097-3.903 3.89-5.178 1.793-1.274 3.911-2.008 6.354-2.2 2.437-0.195 4.987 0.197 7.651 1.177v0c2.639 0.97 4.814 2.315 6.527 4.035 1.706 1.718 2.829 3.642 3.369 5.774 0.541 2.132 0.411 4.287-0.39 6.464zM29.48 100.647c0.582-1.585 0.643-3.184 0.181-4.798-0.47-1.61-1.413-3.083-2.828-4.418-1.415-1.334-3.186-2.393-5.312-3.174v0c-2.127-0.782-4.168-1.125-6.123-1.029-1.954 0.096-3.635 0.604-5.043 1.524-1.416 0.924-2.415 2.179-2.998 3.763v0c-0.585 1.591-0.636 3.194-0.153 4.809 0.477 1.613 1.428 3.089 2.855 4.428 1.427 1.339 3.204 2.399 5.332 3.181v0c2.127 0.782 4.162 1.123 6.104 1.022 1.942-0.101 3.614-0.612 5.015-1.534 1.395-0.925 2.385-2.183 2.97-3.774z" fill="#77d4fc" data-fill-palette-color="primary"></path><path d="M46.273 75.307c-1.124 1.55-2.52 2.602-4.188 3.157-1.672 0.561-3.482 0.606-5.432 0.136v0l0.516-2.816c1.302 0.435 2.555 0.462 3.76 0.08 1.209-0.387 2.182-1.09 2.92-2.106v0c1.027-1.415 1.369-2.805 1.029-4.169-0.345-1.359-1.313-2.616-2.906-3.771v0l-15.801-11.464 1.803-2.485 15.802 11.463c2.297 1.667 3.661 3.568 4.091 5.703 0.429 2.126-0.103 4.216-1.594 6.272z" fill="#77d4fc" data-fill-palette-color="primary"></path><path d="M72.449 48.026l-11.996 10.227-18.112-21.244 11.904-10.15 1.675 1.966-9.567 8.157 6.32 7.412 7.481-6.378 1.617 1.897-7.481 6.378 6.851 8.035 9.658-8.235z" fill="#77d4fc" data-fill-palette-color="primary"></path><path d="M83.075 41.982l-11.997-25.209 6.249-2.973c2.587-1.231 5.054-1.794 7.4-1.689 2.35 0.111 4.471 0.879 6.364 2.305 1.887 1.428 3.457 3.46 4.711 6.095v0c1.877 3.943 2.243 7.545 1.101 10.805-1.134 3.263-3.661 5.827-7.58 7.692v0zM84.652 38.15l3.403-1.619c3.007-1.431 4.967-3.376 5.881-5.835 0.919-2.462 0.569-5.394-1.051-8.797v0c-1.631-3.427-3.691-5.56-6.181-6.4-2.484-0.842-5.23-0.548-8.237 0.883v0l-3.403 1.62z" fill="#77d4fc" data-fill-palette-color="primary"></path><path d="M132.467 27.401l-2.825 0.458-4.075-7.259-11.437 1.854-1.298 8.129-3.032 0.491 5.318-29.143 2.824-0.458zM117.127 5.666l-2.478 14.128 9.576-1.552z" fill="#77d4fc" data-fill-palette-color="primary"></path><path d="M152.758 29.161c-2.037-0.2-3.969-0.904-5.794-2.112-1.825-1.208-3.29-2.744-4.396-4.61v0l2.697-1.959c0.827 1.644 1.956 2.997 3.388 4.06 1.432 1.056 3.028 1.67 4.789 1.842v0c1.932 0.19 3.442-0.093 4.531-0.847 1.089-0.755 1.706-1.866 1.85-3.334v0c0.157-1.601-0.258-2.884-1.244-3.85-0.994-0.959-2.627-1.878-4.899-2.755v0c-5.719-2.018-8.388-4.968-8.007-8.851v0c0.237-2.415 1.207-4.199 2.91-5.355 1.702-1.149 3.953-1.585 6.751-1.31v0c2.037 0.2 3.826 0.76 5.365 1.679 1.539 0.919 2.87 2.229 3.993 3.928v0l-2.603 1.809c-0.848-1.426-1.823-2.517-2.924-3.273-1.108-0.75-2.476-1.205-4.104-1.365v0c-1.713-0.168-3.152 0.094-4.315 0.788-1.164 0.694-1.813 1.732-1.949 3.115v0c-0.139 1.416 0.25 2.586 1.168 3.511 0.924 0.926 2.556 1.791 4.894 2.595v0c2.75 1.038 4.84 2.299 6.271 3.781 1.43 1.49 2.026 3.442 1.789 5.857v0c-0.147 1.495-0.657 2.774-1.529 3.837-0.873 1.07-2.055 1.852-3.546 2.346-1.485 0.502-3.18 0.659-5.086 0.473z" fill="#77d4fc" data-fill-palette-color="primary"></path><path d="M183.916 37.604c-2.154-0.862-3.841-2.208-5.064-4.037-1.222-1.829-1.899-3.957-2.029-6.386-0.127-2.435 0.332-4.958 1.378-7.569v0c1.045-2.61 2.456-4.755 4.231-6.435 1.778-1.687 3.741-2.769 5.887-3.249 2.147-0.479 4.297-0.288 6.451 0.575v0c2.154 0.862 3.841 2.208 5.063 4.037 1.222 1.829 1.895 3.967 2.018 6.414 0.125 2.442-0.34 4.98-1.396 7.614v0c-1.045 2.61-2.452 4.746-4.22 6.408-1.766 1.656-3.722 2.723-5.869 3.203-2.147 0.479-4.297 0.288-6.45-0.575zM184.968 34.975c1.567 0.628 3.164 0.734 4.792 0.319 1.623-0.424 3.122-1.324 4.496-2.7 1.374-1.376 2.483-3.116 3.326-5.219v0c0.843-2.104 1.244-4.134 1.204-6.091-0.04-1.956-0.5-3.651-1.379-5.085-0.883-1.442-2.108-2.477-3.675-3.104v0c-1.573-0.63-3.174-0.727-4.803-0.291-1.626 0.43-3.128 1.339-4.508 2.727-1.379 1.388-2.49 3.134-3.333 5.238v0c-0.843 2.104-1.242 4.128-1.197 6.072 0.045 1.944 0.508 3.63 1.391 5.057 0.884 1.421 2.113 2.447 3.686 3.077z" fill="#77d4fc" data-fill-palette-color="primary"></path><path d="M205.676 48.535l17.4-21.831 5.411 4.312c2.24 1.786 3.827 3.756 4.762 5.912 0.93 2.161 1.169 4.404 0.717 6.73-0.457 2.322-1.594 4.624-3.413 6.906v0c-2.722 3.415-5.798 5.323-9.229 5.725-3.43 0.411-6.842-0.736-10.237-3.441v0zM209.811 48.274l2.947 2.349c2.604 2.076 5.211 2.985 7.822 2.727 2.616-0.253 5.098-1.853 7.447-4.8v0c2.366-2.968 3.38-5.755 3.043-8.361-0.332-2.602-1.8-4.941-4.404-7.016v0l-2.947-2.349z" fill="#77d4fc" data-fill-palette-color="primary"></path><path d="M239.244 84.099l-9.287-12.737 22.557-16.448 9.217 12.64-2.087 1.521-7.407-10.159-7.871 5.74 5.792 7.943-2.014 1.469-5.792-7.944-8.532 6.221 7.478 10.256z" fill="#77d4fc" data-fill-palette-color="primary"></path><path d="M250.44 101.439l25.903-0.785 1.054 2.799-29.563 0.715-1.152-3.06 22.706-18.919 1.082 2.874z" fill="#77d4fc" data-fill-palette-color="primary"></path><path d="M12.856 194.081c-0.821-2.219-0.958-4.419-0.411-6.599 0.547-2.18 1.698-4.154 3.453-5.924 1.757-1.763 3.983-3.143 6.676-4.138v0c2.693-0.996 5.287-1.4 7.781-1.21 2.496 0.196 4.662 0.944 6.496 2.242 1.834 1.299 3.162 3.058 3.983 5.277v0c0.823 2.226 0.961 4.428 0.414 6.608-0.547 2.18-1.705 4.157-3.472 5.931-1.77 1.768-4.014 3.154-6.732 4.159v0c-2.699 0.999-5.28 1.397-7.744 1.196-2.471-0.205-4.624-0.957-6.458-2.256-1.834-1.299-3.163-3.061-3.986-5.286zM15.558 193.081c0.602 1.627 1.622 2.908 3.059 3.843 1.434 0.944 3.144 1.466 5.13 1.568 1.978 0.097 4.055-0.256 6.231-1.061v0c2.169-0.803 3.983-1.888 5.439-3.257 1.455-1.374 2.425-2.889 2.912-4.543 0.495-1.65 0.442-3.289-0.16-4.916v0c-0.6-1.621-1.626-2.9-3.078-3.836-1.444-0.933-3.165-1.448-5.164-1.545-1.997-0.09-4.08 0.266-6.249 1.068v0c-2.176 0.805-3.983 1.888-5.421 3.25-1.442 1.37-2.401 2.876-2.878 4.52-0.48 1.652-0.421 3.288 0.179 4.909z" fill="#77d4fc" data-fill-palette-color="primary"></path><path d="M29.676 225.301c-1.15-1.58-1.734-3.268-1.751-5.065-0.012-1.8 0.517-3.575 1.587-5.324v0l2.571 1.396c-0.839 1.129-1.26 2.34-1.264 3.634-0.004 1.294 0.372 2.459 1.127 3.496v0c1.053 1.445 2.294 2.219 3.725 2.32 1.432 0.092 2.959-0.453 4.582-1.634v0l16.136-11.75 1.849 2.539-16.137 11.75c-2.343 1.706-4.619 2.43-6.829 2.173-2.201-0.256-4.066-1.434-5.596-3.535z" fill="#77d4fc" data-fill-palette-color="primary"></path><path d="M60.133 255.17l-12.258-10.441 18.503-21.723 12.167 10.364-1.707 2.003-9.784-8.333-6.458 7.583 7.643 6.51-1.655 1.943-7.643-6.51-7.002 8.22 9.875 8.411z" fill="#77d4fc" data-fill-palette-color="primary"></path><path d="M74.609 263.683l12.267-25.765 6.382 3.039c2.647 1.26 4.681 2.855 6.104 4.783 1.429 1.932 2.186 4.107 2.271 6.526 0.085 2.419-0.513 4.975-1.796 7.67v0c-1.92 4.033-4.538 6.648-7.854 7.844-3.325 1.2-6.988 0.847-10.991-1.059v0zM78.657 262.463l3.484 1.659c3.073 1.463 5.879 1.761 8.42 0.894 2.543-0.858 4.642-3.024 6.296-6.499v0c1.666-3.499 2.03-6.506 1.093-9.021-0.932-2.512-2.934-4.5-6.007-5.963v0l-3.484-1.658z" fill="#77d4fc" data-fill-palette-color="primary"></path><path d="M129.6 280l-2.893-0.47-1.612-8.362-11.692-1.899-3.88 7.472-3.1-0.504 14.572-26.543 2.893 0.47zM121.746 253.967l-6.973 12.899 9.792 1.589z" fill="#77d4fc" data-fill-palette-color="primary"></path><path d="M154.691 279.693c-2.077 0.202-4.152-0.121-6.225-0.968-2.073-0.854-3.851-2.103-5.333-3.749v0l2.321-2.5c1.159 1.483 2.562 2.616 4.207 3.398 1.645 0.782 3.368 1.085 5.168 0.91v0c1.972-0.192 3.431-0.778 4.377-1.758 0.941-0.973 1.338-2.207 1.193-3.702v0c-0.159-1.641-0.831-2.844-2.014-3.611-1.183-0.767-3.001-1.368-5.455-1.804v0c-6.137-0.893-9.399-3.324-9.784-7.293v0c-0.24-2.468 0.379-4.448 1.856-5.94 1.485-1.487 3.657-2.369 6.515-2.647v0c2.084-0.203 3.988 0.006 5.711 0.627 1.729 0.613 3.324 1.66 4.783 3.141v0l-2.249 2.323c-1.131-1.259-2.327-2.158-3.588-2.697-1.254-0.539-2.715-0.728-4.382-0.566v0c-1.747 0.17-3.136 0.719-4.168 1.647-1.032 0.928-1.479 2.1-1.341 3.517v0c0.14 1.442 0.764 2.537 1.872 3.284 1.108 0.747 2.914 1.293 5.418 1.637v0c2.96 0.5 5.304 1.351 7.03 2.552 1.733 1.207 2.72 3.048 2.961 5.523v0c0.148 1.522-0.112 2.906-0.778 4.152-0.661 1.24-1.691 2.258-3.089 3.055-1.392 0.79-3.061 1.279-5.006 1.469z" fill="#77d4fc" data-fill-palette-color="primary"></path><path d="M191.484 269.899c-2.198 0.877-4.393 1.07-6.587 0.577-2.193-0.492-4.196-1.593-6.008-3.302-1.807-1.712-3.242-3.902-4.307-6.569v0c-1.064-2.667-1.533-5.25-1.406-7.748 0.133-2.501 0.825-4.684 2.077-6.55 1.252-1.866 2.977-3.238 5.175-4.116v0c2.204-0.879 4.402-1.073 6.595-0.581 2.193 0.492 4.198 1.599 6.017 3.321 1.812 1.725 3.255 3.933 4.328 6.625v0c1.067 2.673 1.53 5.243 1.392 7.71-0.143 2.476-0.84 4.647-2.092 6.514-1.252 1.866-2.98 3.239-5.184 4.119zM190.416 267.222c1.611-0.643 2.866-1.695 3.765-3.155 0.907-1.457 1.386-3.18 1.437-5.168 0.047-1.98-0.359-4.047-1.219-6.202v0c-0.857-2.148-1.988-3.934-3.392-5.355-1.411-1.419-2.949-2.351-4.616-2.796-1.662-0.453-3.299-0.358-4.91 0.285v0c-1.605 0.64-2.858 1.698-3.757 3.174-0.896 1.467-1.367 3.201-1.414 5.201-0.04 1.998 0.369 4.072 1.226 6.22v0c0.86 2.155 1.988 3.934 3.386 5.337 1.406 1.407 2.936 2.328 4.591 2.763 1.663 0.438 3.298 0.337 4.903-0.304z" fill="#77d4fc" data-fill-palette-color="primary"></path><path d="M217.481 255.054l-17.756-22.338 5.533-4.399c2.295-1.824 4.621-2.951 6.979-3.382 2.363-0.435 4.65-0.159 6.86 0.826 2.21 0.986 4.244 2.647 6.101 4.983v0c2.779 3.497 3.978 6.997 3.596 10.502-0.383 3.514-2.309 6.65-5.779 9.409v0zM218.163 250.881l3.021-2.401c2.664-2.118 4.165-4.508 4.502-7.171 0.347-2.662-0.677-5.499-3.072-8.511v0c-2.411-3.034-4.953-4.682-7.624-4.944-2.666-0.267-5.331 0.659-7.995 2.776v0l-3.021 2.401z" fill="#77d4fc" data-fill-palette-color="primary"></path><path d="M254.903 215.583l-9.511 12.993-23.026-16.854 9.441-12.897 2.123 1.555-7.591 10.37 8.038 5.883 5.93-8.101 2.06 1.507-5.931 8.102 8.713 6.378 7.662-10.467z" fill="#77d4fc" data-fill-palette-color="primary"></path><path d="M262.009 191.506l-20.392-16.916 1.082-2.853 23.148 19.433-1.184 3.123-30.199-0.844 1.114-2.936z" fill="#77d4fc" data-fill-palette-color="primary"></path><path d="M2.603 144.132c0-6.02 4.88-10.901 10.901-10.9 6.02 0 10.901 4.88 10.9 10.9 0 6.02-4.88 10.901-10.9 10.901-6.02 0-10.901-4.88-10.901-10.901z" fill="#77d4fc" data-fill-palette-color="primary"></path><path d="M253.863 144.132c0-6.02 4.88-10.901 10.901-10.9 6.02 0 10.901 4.88 10.9 10.9 0 6.02-4.88 10.901-10.9 10.901-6.02 0-10.901-4.88-10.901-10.901z" fill="#77d4fc" data-fill-palette-color="primary"></path></g></svg></g></svg></g></svg></g></svg></g><defs></defs></svg><rect width="280" height="280" fill="none" stroke="none" visibility="hidden"></rect></g></svg></g></svg>